<svg width="282" height="55" viewBox="0 0 282 55" fill="none" xmlns="http://www.w3.org/2000/svg">
<path d="M281.58 7.2C281.58 8.27 281.22 9.16 280.49 9.89C279.76 10.62 278.89 10.98 277.88 10.98C276.87 10.98 275.99 10.62 275.27 9.89C274.54 9.16 274.18 8.27 274.18 7.2C274.18 6.18 274.54 5.31 275.27 4.59C276 3.86 276.87 3.5 277.88 3.5C278.89 3.5 279.77 3.86 280.49 4.59C281.22 5.31 281.58 6.18 281.58 7.2Z" fill="#F59D3B"/>
<path d="M19.19 0.76001L0.200012 54.32H2.77001L7.50002 40.94H35.92C35.04 41.27 34.22 41.77 33.7 42.44C32.89 43.69 32.73 45.03 33.23 46.4C33.53 47.29 33.84 48.2 34.17 49.12C34.5 50.04 34.78 50.9 35.02 51.66C35.32 52.56 35.62 53.41 35.92 54.17L35.98 54.33H43.36L24.37 0.770004H19.19V0.76001ZM21.28 12.59C22.11 14.83 23.05 17.49 24.09 20.48C25.13 23.48 26.13 26.35 27.08 29.09C28.18 32.17 29.28 35.3 30.36 38.4H8.48002L20.4 4.74001C20.09 7.42001 20.39 10.09 21.28 12.59Z" fill="#F59D3B"/>
<path d="M49.26 18.04H47.62V54.32H53.7V36.07C53.7 33.39 54.01 30.97 54.63 28.88C55.25 26.79 56.1 25.01 57.17 23.58C58.23 22.17 59.49 21.08 60.9 20.35C62.31 19.62 63.84 19.25 65.43 19.25C67.03 19.25 68.55 19.62 69.96 20.35C71.37 21.08 72.63 22.17 73.69 23.58C74.76 25 75.61 26.78 76.23 28.88C76.85 30.98 77.16 33.4 77.16 36.07V54.32H83.24V36.07C83.24 33.39 83.55 30.97 84.17 28.88C84.79 26.79 85.64 25.01 86.71 23.58C87.77 22.17 89.03 21.08 90.44 20.35C91.85 19.62 93.38 19.25 94.97 19.25C96.56 19.25 98.09 19.62 99.5 20.35C100.91 21.08 102.17 22.17 103.23 23.58C104.3 25 105.15 26.78 105.77 28.88C106.39 30.98 106.7 33.4 106.7 36.07V54.32H112.78V36.07C112.78 33.11 112.36 30.44 111.53 28.15C110.7 25.85 109.53 23.88 108.07 22.3C106.6 20.71 104.82 19.49 102.79 18.68C100.76 17.87 98.5 17.46 96.06 17.46C94.1 17.46 92.32 17.78 90.78 18.42C89.23 19.06 87.86 19.96 86.71 21.09C85.56 22.22 84.59 23.58 83.83 25.15C83.21 26.43 82.71 27.83 82.33 29.31C81.29 25.62 79.43 22.74 76.79 20.74C73.93 18.56 70.47 17.46 66.51 17.46C63.03 17.46 60.15 18.42 57.96 20.32C56.73 21.39 55.67 22.68 54.81 24.16" fill="#F59D3B"/>
<path d="M148.64 22.84C147.15 21.18 145.34 19.85 143.26 18.9C141.18 17.95 138.84 17.46 136.3 17.46C133.77 17.46 131.39 17.87 129.24 18.67C127.09 19.48 125.19 20.68 123.6 22.25C122.01 23.82 120.75 25.79 119.84 28.11C118.94 30.43 118.48 33.13 118.48 36.15C118.48 39.17 118.95 41.88 119.88 44.19C120.81 46.51 122.14 48.48 123.82 50.05C125.51 51.61 127.54 52.82 129.86 53.62C132.17 54.42 134.73 54.83 137.45 54.83C140.23 54.83 142.61 54.32 144.5 53.31C146.38 52.31 147.94 51.09 149.15 49.7C150.35 48.3 151.25 46.84 151.84 45.35C152.42 43.86 152.8 42.59 152.94 41.56L152.98 41.28H151.19L151.15 41.48C150.87 42.99 150.34 44.47 149.58 45.87C148.82 47.27 147.86 48.52 146.72 49.58C145.58 50.64 144.25 51.51 142.76 52.15C141.27 52.79 139.63 53.11 137.88 53.11C136.24 53.11 134.76 52.73 133.5 51.98C132.22 51.22 131.08 50.26 130.11 49.13C129.13 47.99 128.29 46.72 127.6 45.37C126.91 44.01 126.34 42.71 125.91 41.51C125.36 39.97 124.44 38.72 123.17 37.8C122.6 37.39 122 37.06 121.37 36.83H153.3V36.15C153.3 33.52 152.89 31.04 152.09 28.77C151.3 26.49 150.13 24.5 148.64 22.84ZM124.57 34.95C124.68 32.52 125.06 30.31 125.71 28.37C126.37 26.37 127.28 24.68 128.39 23.33C129.5 21.98 130.79 20.94 132.23 20.24C133.67 19.53 135.2 19.18 136.81 19.18C140.1 19.18 142.76 20.57 144.71 23.32C146.65 26.05 147.69 29.96 147.82 34.95H124.57Z" fill="#F59D3B"/>
<path d="M160.57 18.04H159.36V54.32H165.51V36.07C165.51 33.4 165.84 30.98 166.48 28.88C167.12 26.79 168.01 25.01 169.13 23.59C170.24 22.17 171.54 21.09 173 20.35C174.46 19.62 176.06 19.25 177.76 19.25C179.46 19.25 181.05 19.62 182.52 20.35C183.98 21.08 185.29 22.17 186.39 23.59C187.5 25.01 188.39 26.79 189.04 28.88C189.68 30.98 190.01 33.4 190.01 36.07V54.32H196.09V36.07C196.09 33.1 195.66 30.44 194.8 28.14C193.94 25.85 192.74 23.88 191.23 22.29C189.71 20.7 187.87 19.48 185.77 18.67C183.67 17.86 181.34 17.45 178.86 17.45C175.24 17.45 172.24 18.41 169.96 20.3C168.66 21.38 167.55 22.68 166.67 24.19L161.1 18.12L161.02 18.03H160.97" fill="#F59D3B"/>
<path d="M212.09 19.1C209.98 19.81 208.14 20.92 206.63 22.39C205.11 23.86 203.9 25.77 203.05 28.07C202.2 30.36 201.76 33.13 201.76 36.29C201.76 39.26 202.17 41.93 202.97 44.25C203.78 46.57 204.89 48.54 206.29 50.1C207.69 51.67 209.34 52.87 211.2 53.68C213.06 54.49 215.07 54.9 217.18 54.9C220.8 54.9 223.79 53.94 226.05 52.05C227.33 50.98 228.43 49.68 229.33 48.18L235.01 54.32H236.59V18.04H219.07C216.54 18.04 214.19 18.4 212.09 19.1ZM232 20.87C231.01 21.88 230.51 23.14 230.51 24.6V36.22C230.51 38.89 230.18 41.31 229.54 43.41C228.9 45.5 228.01 47.29 226.89 48.74C225.78 50.18 224.46 51.29 222.98 52.05C221.5 52.8 219.89 53.19 218.19 53.19C216.88 53.19 215.6 52.81 214.36 52.06C213.11 51.31 211.99 50.21 211.02 48.79C210.05 47.37 209.27 45.59 208.69 43.49C208.12 41.39 207.83 38.97 207.83 36.29C207.83 33.33 208.16 30.77 208.8 28.7C209.44 26.64 210.33 24.92 211.44 23.59C212.55 22.27 213.86 21.29 215.34 20.68C216.83 20.07 218.45 19.75 220.15 19.75H233.74C233.1 20.01 232.48 20.37 232 20.87Z" fill="#F59D3B"/>
<path d="M266.64 18.16C265.5 17.69 264.2 17.45 262.77 17.45C260.96 17.45 259.38 17.69 258.08 18.15C256.77 18.62 255.62 19.29 254.66 20.16C253.7 21.02 252.87 22.1 252.21 23.35C252.1 23.55 252 23.76 251.89 23.97L246.39 18.03H244.81V54.31H250.89V36.06C250.89 33.77 251.13 31.64 251.61 29.73C252.08 27.83 252.75 26.15 253.58 24.75C254.4 23.36 255.4 22.28 256.55 21.53C257.69 20.79 258.93 20.41 260.23 20.41C261.45 20.41 262.5 20.6 263.36 20.97C264.24 21.35 264.98 21.76 265.57 22.18C266.16 22.6 266.62 23.01 266.94 23.38C267.33 23.83 267.65 24.04 267.92 24.04C268.31 24.04 268.68 23.91 269.01 23.66C269.33 23.42 269.58 23.13 269.77 22.78C269.96 22.43 270.05 22.05 270.05 21.65C270.05 21.23 269.93 20.88 269.71 20.59C268.83 19.46 267.79 18.64 266.64 18.16Z" fill="#F59D3B"/>
<path d="M274.8 23.94V54.32H280.95V18.04H280.71C277.45 18.04 274.8 20.69 274.8 23.94Z" fill="#F59D3B"/>
</svg>
