<svg width="235" height="17" viewBox="0 0 235 17" fill="none" xmlns="http://www.w3.org/2000/svg">
<path d="M0.369987 0.970001H1.86999V6.71001L1.89999 6.67999L8.86998 0.970001H9.97998L3.48998 6.3L10.87 12.71H8.72998L1.85999 6.81V12.71H0.359985V0.970001H0.369987Z" fill="white"/>
<path d="M11.38 8.8C11.38 6.34 13.22 4.71001 15.51 4.71001C17.8 4.71001 19.64 6.34 19.64 8.8C19.64 11.25 17.8 12.88 15.51 12.88C13.22 12.88 11.38 11.25 11.38 8.8ZM18.11 9.25C18.11 7.22 17.04 5.23 15.42 5.23C14.17 5.23 12.91 6.17 12.91 8.36C12.91 10.39 13.98 12.37 15.6 12.37C16.86 12.36 18.11 11.43 18.11 9.25Z" fill="white"/>
<path d="M25.64 16.54V12.89C23.13 12.86 21.14 11.28 21.14 8.96001C21.14 6.44001 23.14 4.77 25.64 4.72V0.639999H27.03V4.72C29.54 4.75 31.53 6.31999 31.53 8.64999C31.53 11.16 29.53 12.84 27.03 12.89V16.54H25.64ZM22.67 8.5C22.67 10.39 23.85 12.23 25.64 12.36V5.22C24.15 5.22 22.67 6.21 22.67 8.5ZM27.03 5.22V12.36C28.52 12.36 30 11.38 30 9.09C30 7.2 28.83 5.35 27.03 5.22Z" fill="white"/>
<path d="M33.04 8.83C33.04 6.23 34.99 4.71001 36.91 4.71001C38.85 4.71001 40.35 5.84 40.67 8.02H34.45C34.45 8.08 34.45 8.14 34.45 8.2C34.45 10.51 35.7 11.96 37.53 11.96C38.72 11.96 39.9 11.48 40.38 9.81H40.8C40.37 11.84 39.03 12.87 37.01 12.87C34.6 12.88 33.04 11.15 33.04 8.83ZM34.49 7.5H39.07C38.95 5.86 38.03 5.16 36.87 5.16C35.73 5.16 34.73 5.97 34.49 7.5Z" fill="white"/>
<path d="M42.44 11.88C42.44 11.34 42.87 10.9 43.42 10.9C43.99 10.9 44.43 11.33 44.43 11.88C44.43 12.44 44 12.89 43.42 12.89C42.87 12.88 42.44 12.44 42.44 11.88Z" fill="white"/>
<path d="M49.93 6.8C49.93 3.15 52.75 0.720001 56.17 0.720001C59.58 0.720001 62.41 3.15 62.41 6.8C62.41 10.44 59.58 12.88 56.17 12.88C52.75 12.88 49.93 10.44 49.93 6.8ZM60.66 7.13C60.66 3.46 58.63 1.37 56.11 1.37C53.82 1.37 51.67 2.99001 51.67 6.46001C51.67 10.13 53.7 12.23 56.24 12.23C58.5 12.24 60.66 10.59 60.66 7.13Z" fill="white"/>
<path d="M68.15 12.88C66.17 12.88 64.02 11.74 64.02 8.19C64.02 3.9 66.03 1.7 69.41 1.22C70.99 0.990001 71.38 0.939993 71.38 0.429993H71.66C71.66 1.74999 71.32 2.32 69.57 2.52C66.88 2.83 66.61 2.81 66.12 3.19C65.81 3.42 65.56 3.86 65.56 5.56V6.19C66.15 5.34 67.28 4.86 68.35 4.86C70.72 4.86 72.3 6.53 72.3 8.89C72.3 11.25 70.58 12.88 68.15 12.88ZM70.75 9.36C70.75 7.04 70.01 5.60001 67.89 5.60001C67.01 5.60001 66.06 5.93 65.55 6.39V8.00999C65.55 10.94 66.79 12.36 68.24 12.36C70.13 12.36 70.75 10.81 70.75 9.36Z" fill="white"/>
<path d="M73.77 8.8C73.77 6.34 75.61 4.71001 77.9 4.71001C80.19 4.71001 82.03 6.34 82.03 8.8C82.03 11.25 80.19 12.88 77.9 12.88C75.61 12.88 73.77 11.25 73.77 8.8ZM80.5 9.25C80.5 7.22 79.43 5.23 77.81 5.23C76.56 5.23 75.3 6.17 75.3 8.36C75.3 10.39 76.37 12.37 77.99 12.37C79.25 12.36 80.5 11.43 80.5 9.25Z" fill="white"/>
<path d="M84.1 4.92999H85.49V6.08C86 5.24 86.9 4.72 88.04 4.72C90.24 4.72 91.72 6.45 91.72 8.81C91.72 11.16 90.23 12.89 88.04 12.89C86.89 12.89 86 12.37 85.49 11.53V16.54H84.1V4.92999ZM85.49 6.25999V11.34C86.06 11.99 86.79 12.21 87.44 12.21C89.13 12.21 90.19 10.74 90.19 8.81C90.19 6.87 89.12 5.39999 87.44 5.39999C86.79 5.38999 86.05 5.60999 85.49 6.25999Z" fill="white"/>
<path d="M96.34 12.58L92.69 4.92999H94.22L97.11 11.01L100.14 4.92999H100.93L95.13 16.54H94.36L96.34 12.58Z" fill="white"/>
<path d="M101.5 14.82H101.16L101.28 12.13H102.27C102.94 10.63 103.26 7.93 103.26 5.3V4.92999H108.29V12.13H109.53L109.65 14.82H109.31L108.35 12.9C108.27 12.74 108.21 12.7 108.03 12.7H102.78C102.6 12.7 102.53 12.75 102.46 12.9L101.5 14.82ZM106.9 5.5H103.99C103.96 7.65 103.63 10.64 103.01 12.12H106.9V5.5Z" fill="white"/>
<path d="M110.94 8.8C110.94 6.34 112.78 4.71001 115.07 4.71001C117.36 4.71001 119.2 6.34 119.2 8.8C119.2 11.25 117.36 12.88 115.07 12.88C112.79 12.88 110.94 11.25 110.94 8.8ZM117.68 9.25C117.68 7.22 116.61 5.23 114.99 5.23C113.74 5.23 112.48 6.17 112.48 8.36C112.48 10.39 113.55 12.37 115.17 12.37C116.42 12.36 117.68 11.43 117.68 9.25Z" fill="white"/>
<path d="M121.27 12.7V4.92999H124.18C126.01 4.92999 127.31 5.36 127.31 6.66C127.31 7.56 126.6 8.35 125.14 8.56V8.57001C126.92 8.65001 127.88 9.41999 127.88 10.43C127.88 11.76 126.72 12.69 124.04 12.69H121.27V12.7ZM122.66 5.44V8.44H124.1C125.18 8.44 125.79 7.98001 125.79 6.99001C125.79 5.92001 125.2 5.44 124.12 5.44H122.66ZM122.66 12.19H124.12C125.65 12.19 126.36 11.65 126.36 10.53C126.36 9.48 125.49 8.89999 124.1 8.89999H122.66V12.19Z" fill="white"/>
<path d="M129.2 10.84C129.2 8.87 132.06 8.32001 134.29 8.10001V7.53999C134.29 5.87999 133.76 5.14 132.6 5.14C131.92 5.14 131.49 5.32999 131.24 5.64999C130.93 6.01999 131.1 6.58 131.1 6.87C131.1 7.27 130.84 7.55 130.43 7.55C130 7.55 129.72 7.27 129.72 6.81C129.72 5.73 130.94 4.7 132.69 4.7C134.56 4.7 135.66 5.41 135.65 7.63L135.63 11.19C135.63 11.93 135.8 12.2 136.2 12.2C136.53 12.2 136.8 12.04 137.07 11.58L137.32 11.72C136.95 12.57 136.28 12.87 135.65 12.87C134.91 12.87 134.32 12.42 134.32 11.31V10.88C133.99 12.3 133.04 12.89 131.7 12.89C130.27 12.88 129.2 12.07 129.2 10.84ZM134.29 9.92999V8.48C132.28 8.76 130.71 9.24 130.71 10.61C130.71 11.46 131.31 12.22 132.35 12.22C133.25 12.22 134.29 11.63 134.29 9.92999Z" fill="white"/>
<path d="M138.55 4.92999H139.94V8.38H143.75V4.92999H145.14V12.7H143.75V8.95H139.94V12.7H138.55V4.92999Z" fill="white"/>
<path d="M147.78 4.92999H149.17V11.48L153.13 4.92999H154.52V12.7H153.13V6.14999L149.17 12.7H147.78V4.92999Z" fill="white"/>
<path d="M156.6 8.83C156.6 6.23 158.55 4.71001 160.47 4.71001C162.41 4.71001 163.91 5.84 164.23 8.02H158.01C158.01 8.08 158.01 8.14 158.01 8.2C158.01 10.51 159.26 11.96 161.09 11.96C162.28 11.96 163.46 11.48 163.94 9.81H164.36C163.93 11.84 162.6 12.87 160.57 12.87C158.16 12.88 156.6 11.15 156.6 8.83ZM158.06 7.5H162.64C162.52 5.86 161.6 5.16 160.44 5.16C159.29 5.16 158.29 5.97 158.06 7.5Z" fill="white"/>
<path d="M166 11.88C166 11.34 166.43 10.9 166.98 10.9C167.55 10.9 167.99 11.33 167.99 11.88C167.99 12.44 167.56 12.89 166.98 12.89C166.43 12.88 166 12.44 166 11.88Z" fill="white"/>
<path d="M173.49 6.8C173.49 3.05 176.28 0.720001 180.15 0.720001C181.51 0.720001 183.06 1 183.97 1.52L184.26 4.55H183.8L182.96 2.17C182.76 1.58 181.21 1.37 180.1 1.37C177.58 1.37 175.21 2.69999 175.21 6.50999C175.21 9.95 177.08 12.24 180.21 12.24C181.32 12.24 182.84 12.02 183.04 11.43L183.88 9.05H184.34L184.05 12.08C183.14 12.61 181.43 12.88 180.07 12.88C176.25 12.88 173.49 10.56 173.49 6.8Z" fill="white"/>
<path d="M186.08 8.83C186.08 6.23 188.03 4.71001 189.95 4.71001C191.89 4.71001 193.39 5.84 193.71 8.02H187.49C187.49 8.08 187.49 8.14 187.49 8.2C187.49 10.51 188.74 11.96 190.57 11.96C191.76 11.96 192.94 11.48 193.42 9.81H193.84C193.41 11.84 192.08 12.87 190.05 12.87C187.64 12.88 186.08 11.15 186.08 8.83ZM187.53 7.5H192.11C191.99 5.86 191.07 5.16 189.91 5.16C188.77 5.16 187.76 5.97 187.53 7.5Z" fill="white"/>
<path d="M195.77 4.92999H197.16V6.08C197.67 5.24 198.57 4.72 199.71 4.72C201.91 4.72 203.39 6.45 203.39 8.81C203.39 11.16 201.9 12.89 199.71 12.89C198.56 12.89 197.67 12.37 197.16 11.53V16.54H195.77V4.92999ZM197.16 6.25999V11.34C197.73 11.99 198.46 12.21 199.11 12.21C200.8 12.21 201.87 10.74 201.87 8.81C201.87 6.87 200.8 5.39999 199.11 5.39999C198.46 5.38999 197.72 5.60999 197.16 6.25999Z" fill="white"/>
<path d="M205.48 12.7V4.92999H208.39C210.22 4.92999 211.52 5.36 211.52 6.66C211.52 7.56 210.81 8.35 209.35 8.56V8.57001C211.13 8.65001 212.09 9.41999 212.09 10.43C212.09 11.76 210.93 12.69 208.25 12.69H205.48V12.7ZM206.87 5.44V8.44H208.31C209.39 8.44 210 7.98001 210 6.99001C210 5.92001 209.41 5.44 208.33 5.44H206.87ZM206.87 12.19H208.32C209.85 12.19 210.56 11.65 210.56 10.53C210.56 9.48 209.69 8.89999 208.3 8.89999H206.86V12.19H206.87Z" fill="white"/>
<path d="M214.1 4.92999H215.49V11.48L219.45 4.92999H220.84V12.7H219.45V6.14999L215.49 12.7H214.1V4.92999Z" fill="white"/>
<path d="M222.91 8.83C222.91 6.23 224.8 4.71001 226.97 4.71001C228.89 4.71001 230.04 5.65 230.04 6.48C230.04 6.93 229.76 7.21001 229.4 7.21001C228.9 7.21001 228.67 6.93 228.52 6.44C228.35 5.82 228.02 5.17 226.8 5.17C225.44 5.17 224.32 6.24 224.32 8.22C224.32 10.53 225.56 11.98 227.39 11.98C228.58 11.98 229.73 11.42 230.18 9.75H230.6C230.15 11.89 228.82 12.89 226.88 12.89C224.47 12.88 222.91 11.15 222.91 8.83Z" fill="white"/>
<path d="M232.07 11.88C232.07 11.34 232.5 10.9 233.05 10.9C233.62 10.9 234.06 11.33 234.06 11.88C234.06 12.44 233.63 12.89 233.05 12.89C232.51 12.88 232.07 12.44 232.07 11.88Z" fill="white"/>
</svg>
